<?xml version="1.0" encoding="UTF-8"?>
<svg xmlns="http://www.w3.org/2000/svg" xmlns:xlink="http://www.w3.org/1999/xlink" width="16px" height="16px" viewBox="0 0 16 16" version="1.1">
<defs>
<filter id="alpha" filterUnits="objectBoundingBox" x="0%" y="0%" width="100%" height="100%">
  <feColorMatrix type="matrix" in="SourceGraphic" values="0 0 0 0 1 0 0 0 0 1 0 0 0 0 1 0 0 0 1 0"/>
</filter>
<mask id="mask0">
  <g filter="url(#alpha)">
<rect x="0" y="0" width="16" height="16" style="fill:rgb(0%,0%,0%);fill-opacity:0.3;stroke:none;"/>
  </g>
</mask>
<clipPath id="clip1">
  <rect x="0" y="0" width="192" height="152"/>
</clipPath>
<g id="surface58156" clip-path="url(#clip1)">
<path style="fill:none;stroke-width:2;stroke-linecap:butt;stroke-linejoin:miter;stroke:rgb(83.529413%,82.745099%,81.176472%);stroke-opacity:1;stroke-miterlimit:4;" d="M 27.998737 192 L 99.999557 192 " transform="matrix(0.876835,0,0,1,13.27005,-157)"/>
<path style="fill:none;stroke-width:2;stroke-linecap:butt;stroke-linejoin:miter;stroke:rgb(83.529413%,82.745099%,81.176472%);stroke-opacity:1;stroke-miterlimit:4;" d="M 27.998737 202 L 99.999557 202 " transform="matrix(0.876835,0,0,1,13.27005,-157)"/>
<path style="fill:none;stroke-width:2;stroke-linecap:butt;stroke-linejoin:miter;stroke:rgb(83.529413%,82.745099%,81.176472%);stroke-opacity:1;stroke-miterlimit:4;" d="M 27.998737 212 L 99.999557 212 " transform="matrix(0.876835,0,0,1,13.27005,-157)"/>
<path style="fill:none;stroke-width:2;stroke-linecap:butt;stroke-linejoin:miter;stroke:rgb(83.529413%,82.745099%,81.176472%);stroke-opacity:1;stroke-miterlimit:4;" d="M 27.998737 222 L 99.999557 222 " transform="matrix(0.876835,0,0,1,13.27005,-157)"/>
<path style="fill:none;stroke-width:2;stroke-linecap:butt;stroke-linejoin:miter;stroke:rgb(83.529413%,82.745099%,81.176472%);stroke-opacity:1;stroke-miterlimit:4;" d="M 27.998737 232 L 99.999557 232 " transform="matrix(0.876835,0,0,1,13.27005,-157)"/>
<path style="fill:none;stroke-width:2;stroke-linecap:butt;stroke-linejoin:miter;stroke:rgb(83.529413%,82.745099%,81.176472%);stroke-opacity:1;stroke-miterlimit:4;" d="M 27.998737 242 L 99.999557 242 " transform="matrix(0.876835,0,0,1,13.27005,-157)"/>
<path style="fill:none;stroke-width:2;stroke-linecap:butt;stroke-linejoin:miter;stroke:rgb(83.529413%,82.745099%,81.176472%);stroke-opacity:1;stroke-miterlimit:4;" d="M 27.998737 252 L 99.999557 252 " transform="matrix(0.876835,0,0,1,13.27005,-157)"/>
<path style="fill:none;stroke-width:2;stroke-linecap:butt;stroke-linejoin:miter;stroke:rgb(83.529413%,82.745099%,81.176472%);stroke-opacity:1;stroke-miterlimit:4;" d="M 27.998737 262 L 99.999557 262 " transform="matrix(0.876835,0,0,1,13.27005,-157)"/>
<path style="fill:none;stroke-width:2;stroke-linecap:butt;stroke-linejoin:miter;stroke:rgb(83.529413%,82.745099%,81.176472%);stroke-opacity:1;stroke-miterlimit:4;" d="M 27.998737 272 L 93.998747 272 " transform="matrix(0.876835,0,0,1,13.27005,-157)"/>
</g>
</defs>
<g id="surface58145">
<use xlink:href="#surface58156" transform="matrix(1,0,0,1,-168,-16)" mask="url(#mask0)"/>
<path style=" stroke:none;fill-rule:nonzero;fill:rgb(23.921569%,21.960784%,27.450982%);fill-opacity:1;" d="M 0.828125 14.636719 C 0.828125 14.40625 0.859375 14.386719 1.324219 14.296875 C 1.746094 14.21875 2.136719 13.921875 2.375 13.492188 C 2.496094 13.28125 3.132812 11.773438 3.789062 10.136719 C 4.449219 8.503906 5.566406 5.730469 6.273438 3.972656 L 7.5625 0.78125 L 8.109375 0.734375 L 10.910156 7.070312 C 12.449219 10.554688 13.800781 13.542969 13.910156 13.710938 C 14.132812 14.054688 14.417969 14.226562 14.945312 14.347656 C 15.289062 14.425781 15.3125 14.445312 15.3125 14.640625 L 15.3125 14.855469 L 8.238281 14.855469 L 8.238281 14.425781 L 8.78125 14.375 C 9.46875 14.308594 9.808594 14.203125 9.929688 14.007812 C 10.058594 13.796875 10.046875 13.292969 9.898438 12.910156 C 9.777344 12.589844 6.921875 5.875 6.734375 5.464844 L 6.632812 5.246094 L 6.546875 5.425781 C 6.355469 5.84375 3.710938 12.472656 3.597656 12.828125 C 3.382812 13.503906 3.460938 13.945312 3.832031 14.140625 C 4.003906 14.234375 4.933594 14.410156 5.242188 14.410156 C 5.292969 14.410156 5.328125 14.5 5.328125 14.632812 L 5.328125 14.855469 L 0.828125 14.855469 Z M 0.828125 14.636719 "/>
</g>
</svg>
